<?xml version="1.0" encoding="UTF-8" standalone="no"?>
<!-- Created with Inkscape (http://www.inkscape.org/) -->

<svg
   version="1.1"
   id="svg215"
   width="880"
   height="880"
   viewBox="0 0 880 880"
   sodipodi:docname="broken-pot-flower-vector-art-pd.svg"
   inkscape:version="1.2 (dc2aedaf03, 2022-05-15)"
   xmlns:inkscape="http://www.inkscape.org/namespaces/inkscape"
   xmlns:sodipodi="http://sodipodi.sourceforge.net/DTD/sodipodi-0.dtd"
   xmlns="http://www.w3.org/2000/svg"
   xmlns:svg="http://www.w3.org/2000/svg">
  <defs
     id="defs219">
    <clipPath
       clipPathUnits="userSpaceOnUse"
       id="clipPath231">
      <path
         d="M 0,660 H 660 V 0 H 0 Z"
         id="path229" />
    </clipPath>
  </defs>
  <sodipodi:namedview
     id="namedview217"
     pagecolor="#ffffff"
     bordercolor="#000000"
     borderopacity="0.25"
     inkscape:showpageshadow="2"
     inkscape:pageopacity="0.0"
     inkscape:pagecheckerboard="0"
     inkscape:deskcolor="#d1d1d1"
     showgrid="false"
     inkscape:zoom="0.95113636"
     inkscape:cx="441.05137"
     inkscape:cy="440.52569"
     inkscape:window-width="1920"
     inkscape:window-height="1017"
     inkscape:window-x="-8"
     inkscape:window-y="-8"
     inkscape:window-maximized="1"
     inkscape:current-layer="g223">
    <inkscape:page
       x="0"
       y="0"
       id="page221"
       width="880"
       height="880" />
  </sodipodi:namedview>
  <g
     id="g223"
     inkscape:groupmode="layer"
     inkscape:label="Page 1"
     transform="matrix(1.3333333,0,0,-1.3333333,0,880)">
    <g
       id="g225">
      <g
         id="g227"
         clip-path="url(#clipPath231)">
        <g
           id="g233"
           transform="translate(75.8286,395.311)">
          <path
             d="M 0,0 C 28.827,22.662 -7.195,48.8 -7.314,59.204 -19.231,46.315 -39.786,-5.095 0,0"
             style="fill:#82970a;fill-opacity:1;fill-rule:evenodd;stroke:none"
             id="path235" />
        </g>
        <g
           id="g237"
           transform="translate(147.8735,352.6592)">
          <path
             d="M 0,0 C -44.082,42.515 -76.256,-37.386 -92.896,-42.723 -69.031,-58.568 18.889,-71.551 0,0"
             style="fill:#82970a;fill-opacity:1;fill-rule:evenodd;stroke:none"
             id="path239" />
        </g>
        <g
           id="g241"
           transform="translate(171.2183,354.9556)">
          <path
             d="M 0,0 C -41.727,32.05 22.074,69.545 24.491,84.36 40.99,66.098 63.195,-6.955 0,0"
             style="fill:#82970a;fill-opacity:1;fill-rule:evenodd;stroke:none"
             id="path243" />
        </g>
        <g
           id="g245"
           transform="translate(73.9771,390.4888)">
          <path
             d="m 0,0 c -4.234,6.634 -3.13,4.978 -2.266,12.442 9.894,-14.814 28.667,-47.141 46.793,-49.814 30.43,-4.483 67.92,27.514 106.545,-8.733 6.231,-5.846 17.982,-16.903 16.9,-26.044 -4.507,-37.994 -7.022,-7.354 -21.566,10.411 C 106.333,-12.786 58.157,-65.336 26.122,-33.77 17.325,-25.101 7.287,-10.318 0,0"
             style="fill:#a7bf1c;fill-opacity:1;fill-rule:evenodd;stroke:none"
             id="path247" />
        </g>
        <g
           id="g249"
           transform="translate(372.793,239.5303)">
          <path
             d="m 0,0 c 17.715,8.358 66.215,20 64.873,42.665 -0.764,12.893 -12.824,21.37 -17.865,33.168 -7.866,13.584 -13.184,5.408 -27.905,11.024 -8.341,3.183 -7.576,-7.193 -35.068,10.36 -17.803,11.369 -41.111,28.917 -62.828,17.753 -17.681,-8.829 -31.299,-12.522 -48.067,-19.893 -39.541,-18.598 -25.135,-42.08 -87.998,-53.415 -11.866,-2.141 -59.317,-10.2 -65.568,-16.6 -7.317,-7.492 -4.314,-14.33 7.164,-15.019 26.11,-1.573 44.405,-4.016 70.134,-7.247 38.625,-4.851 64.138,-0.705 101.494,0.297 16.258,0.434 27.938,-0.981 43.801,-4.275 C -33.914,-7.059 -24.187,-9.64 0,0"
             style="fill:#663c12;fill-opacity:1;fill-rule:evenodd;stroke:none"
             id="path251" />
        </g>
        <g
           id="g253"
           transform="translate(372.793,239.5303)">
          <path
             d="m 0,0 c 17.715,8.358 66.215,20 64.873,42.665 -0.764,12.893 -12.824,21.37 -17.865,33.168 -7.866,13.584 -13.184,5.408 -27.905,11.024 -8.341,3.183 -7.576,-7.193 -35.068,10.36 -1.387,0.885 -2.805,1.807 -4.254,2.752 -0.218,-4.617 -0.846,-9.532 -1.937,-14.771 -10.301,-32.294 -37.157,-47.678 -69.771,-49.726 -42.416,-2.661 -42.052,1.484 -85.936,-12.151 -29.421,-9.14 -41.222,-10.843 -72.242,-10.459 -17.077,0.295 -26.777,1.408 -34.292,4.718 -0.145,-4.087 3.73,-7.092 11.135,-7.537 26.11,-1.573 44.405,-4.016 70.134,-7.247 38.625,-4.851 64.138,-0.705 101.494,0.297 16.258,0.434 27.938,-0.981 43.801,-4.275 C -33.914,-7.059 -24.187,-9.64 0,0"
             style="fill:#422508;fill-opacity:1;fill-rule:evenodd;stroke:none"
             id="path255" />
        </g>
        <g
           id="g257"
           transform="translate(495.3594,215.2607)">
          <path
             d="M 0,0 C 73.775,0 133.949,8.692 133.949,19.352 133.949,30.01 73.775,38.703 0,38.703 -73.779,38.703 -133.951,30.01 -133.951,19.352 -133.951,8.692 -73.779,0 0,0"
             style="fill:#e6e6e6;fill-opacity:1;fill-rule:evenodd;stroke:none"
             id="path259" />
        </g>
        <g
           id="g261"
           transform="translate(362.1211,353.3965)">
          <path
             d="m 0,0 c -14.699,-61.015 -7.354,-115.116 16.414,-120.842 l 22.766,-5.485 4.029,16.721 c 16.869,16.585 33.324,49.322 42.854,88.87 9.529,39.549 9.789,76.188 2.324,98.636 l 4.029,16.721 -22.768,5.486 C 45.883,105.833 14.701,61.013 0,0"
             style="fill:#a6450d;fill-opacity:1;fill-rule:evenodd;stroke:none"
             id="path263" />
        </g>
        <g
           id="g265"
           transform="translate(384.8867,347.9116)">
          <path
             d="M 0,0 C -14.699,-61.014 -7.35,-115.117 16.414,-120.842 40.18,-126.57 71.363,-81.749 86.065,-20.736 100.762,40.277 93.414,94.38 69.65,100.106 45.883,105.832 14.701,61.012 0,0"
             style="fill:#612502;fill-opacity:1;fill-rule:evenodd;stroke:none"
             id="path267" />
        </g>
        <g
           id="g269"
           transform="translate(392.3496,346.1128)">
          <path
             d="m 0,0 c -13.18,-54.712 -6.592,-103.228 14.721,-108.361 1.484,-0.359 3.006,-0.488 4.551,-0.417 l 140.917,-12.859 37.823,156.972 -131.315,52.73 c -1.342,0.767 -2.756,1.344 -4.24,1.702 C 41.145,94.902 13.184,54.712 0,0"
             style="fill:#a6450d;fill-opacity:1;fill-rule:evenodd;stroke:none"
             id="path271" />
        </g>
        <g
           id="g273"
           transform="translate(392.3496,346.1128)">
          <path
             d="m 0,0 c -13.18,-54.712 -6.592,-103.228 14.721,-108.361 1.484,-0.359 3.006,-0.488 4.551,-0.417 l 140.917,-12.859 28.764,119.384 -7.799,31.626 C 149.445,7.714 123.908,-24.031 108.006,-71.532 105.033,-80.407 96.529,-85.87 87.223,-84.877 c -9.627,1.024 -19.254,2.048 -28.879,3.072 -19.977,2.127 -35.701,15.95 -40.369,35.489 C 7.783,-3.652 21.066,38.868 40.176,81.349 24.445,67.076 8.875,36.829 0,0"
             style="fill:#8c3604;fill-opacity:1;fill-rule:evenodd;stroke:none"
             id="path275" />
        </g>
        <g
           id="g277"
           transform="translate(540.8789,310.3271)">
          <path
             d="m 0,0 c -10.443,-43.347 -5.223,-81.785 11.66,-85.851 16.883,-4.07 39.037,27.773 49.481,71.121 C 71.586,28.616 66.365,67.053 49.482,71.121 32.598,75.19 10.443,43.348 0,0"
             style="fill:#612502;fill-opacity:1;fill-rule:evenodd;stroke:none"
             id="path279" />
        </g>
        <g
           id="g281"
           transform="translate(564.084,304.7363)">
          <path
             d="m 0,0 c -2.516,-10.443 -1.258,-19.703 2.81,-20.683 4.067,-0.981 9.405,6.691 11.921,17.134 2.515,10.443 1.257,19.703 -2.809,20.683 C 7.854,18.114 2.518,10.442 0,0"
             style="fill:#2b1101;fill-opacity:1;fill-rule:evenodd;stroke:none"
             id="path283" />
        </g>
        <g
           id="g285"
           transform="translate(460.8164,419.8203)">
          <path
             d="m 0,0 c -37.584,7.487 -37.355,-40.499 -27.623,-64.338 11.742,-28.768 35.439,-49.678 66.621,-31.93 19.307,10.99 75.795,49.894 32.586,68.856 -19.209,8.432 -41.471,15.799 -61.771,23.628 z"
             style="fill:#bd591e;fill-opacity:1;fill-rule:evenodd;stroke:none"
             id="path287" />
        </g>
        <g
           id="g289"
           transform="translate(133.7095,266.6123)">
          <path
             d="m 0,0 c 33.75,-4.314 73.919,-0.218 102.859,18.613 36.244,23.58 36.625,12.724 71.557,24.803 36.947,12.775 24.527,37.04 -10.722,34.145 C 93.739,71.815 98.497,25.044 50.396,15.541 31.562,11.819 19.687,13.129 -0.555,6.936 -9.404,3.915 -8.085,2.041 0,0"
             style="fill:#7d4d1e;fill-opacity:1;fill-rule:evenodd;stroke:none"
             id="path291" />
        </g>
        <g
           id="g293"
           transform="translate(82.0493,382.0552)">
          <path
             d="M 0,0 C 3.016,21.783 -38.247,11.966 -45.487,15.231 -44.31,5.102 -22.19,-21.696 0,0"
             style="fill:#82970a;fill-opacity:1;fill-rule:evenodd;stroke:none"
             id="path295" />
        </g>
        <g
           id="g297"
           transform="translate(82.3193,386.7134)">
          <path
             d="M 0,0 C -8.579,25.268 21.694,29.846 25.498,36.71 27.781,23.927 21.242,-17.492 0,0"
             style="fill:#82970a;fill-opacity:1;fill-rule:evenodd;stroke:none"
             id="path299" />
        </g>
      </g>
    </g>
  </g>
</svg>
